<svg xmlns="http://www.w3.org/2000/svg" width="16.879" height="16.881" viewBox="0 0 16.879 16.881">
    <path data-name="Path 16263" d="M19.417 26.65a1.206 1.206 0 0 0 0-1.707l-6.381-6.379 6.382-6.38a1.207 1.207 0 1 0-1.707-1.707l-7.233 7.233a1.206 1.206 0 0 0 0 1.707l7.233 7.233a1.206 1.206 0 0 0 1.707 0z" transform="translate(-10.124 -10.123)" style="fill:#fff;fill-rule:evenodd"/>
    <path data-name="Path 16264" d="M26.841 18.081a1.206 1.206 0 0 0-1.206-1.206H13.581a1.206 1.206 0 0 0 0 2.411h12.055a1.206 1.206 0 0 0 1.205-1.205z" transform="translate(-9.963 -9.64)" style="fill:#fff;fill-rule:evenodd"/>
</svg>
