<svg xmlns="http://www.w3.org/2000/svg" width="18.615" height="22" viewBox="0 0 18.615 22">
    <path d="m58.367 28.479-4.231-4.231a.846.846 0 0 0-.6-.248h-8.459a1.694 1.694 0 0 0-1.692 1.692v1.692h-1.693A1.694 1.694 0 0 0 40 29.077v15.23A1.694 1.694 0 0 0 41.692 46h11.846a1.694 1.694 0 0 0 1.692-1.692v-1.693h1.692a1.694 1.694 0 0 0 1.692-1.692V29.077a.846.846 0 0 0-.248-.6zm-8.214 13.29h-5.076a.846.846 0 0 1 0-1.692h5.077a.846.846 0 1 1 0 1.692zm0-3.385h-5.076a.846.846 0 1 1 0-1.692h5.077a.846.846 0 1 1 0 1.692zm6.769 2.538H55.23v-8.461a.846.846 0 0 0-.248-.6l-4.231-4.231a.846.846 0 0 0-.6-.248h-5.074v-1.69h8.111l3.735 3.735z" transform="translate(-40 -24)" style="fill:#707070"/>
</svg>
