<svg xmlns="http://www.w3.org/2000/svg" width="25.35" height="31.175" viewBox="0 0 25.35 31.175">
    <path d="M10.138 23.072 8.3 19.325a1.011 1.011 0 0 0-.836-.588l-1.49-.081a.956.956 0 0 1-.836-.631 13.47 13.47 0 0 1 0-9.387.956.956 0 0 1 .836-.631l1.49-.157a1.011 1.011 0 0 0 .851-.569l1.84-3.748.478-.956a1.023 1.023 0 0 0 .1-.445 1 1 0 0 0-.259-.674A4.333 4.333 0 0 0 6.778.024l-.34.043-.176.023a2.247 2.247 0 0 0-.24.038l-.234.058C2.682.98.238 6.075 0 12.4v1.8c.238 6.31 2.682 11.406 5.777 12.248l.234.058a2.246 2.246 0 0 0 .238.038l.176.025.339.043a4.333 4.333 0 0 0 3.694-1.434 1 1 0 0 0 .259-.674 1.023 1.023 0 0 0-.1-.445z" transform="rotate(-30 13.256 .814)" style="fill:none;stroke:#000;stroke-miterlimit:10;stroke-width:2px"/>
</svg>
