<svg xmlns="http://www.w3.org/2000/svg" width="14.25" height="17.375" viewBox="0 0 14.25 17.375">
  <g id="_-Product-Icons" data-name="ðŸ”-Product-Icons" transform="translate(-9.75 -7.25)">
    <g id="ic_fluent_delete_48_regular" transform="translate(9.75 7.25)">
      <path id="_-Color" data-name="ðŸŽ¨-Color" d="M16.875,7.25a2.875,2.875,0,0,1,2.873,2.765l0,.11h3.625a.625.625,0,0,1,.064,1.247l-.064,0H22.83L21.978,22.66a2.125,2.125,0,0,1-2.119,1.965H13.891a2.125,2.125,0,0,1-2.119-1.965L10.92,11.375h-.545a.625.625,0,0,1-.622-.561l0-.064a.625.625,0,0,1,.561-.622l.064,0H14A2.875,2.875,0,0,1,16.875,7.25Zm4.7,4.125h-9.4l.845,11.191a.875.875,0,0,0,.873.809h5.968a.875.875,0,0,0,.872-.809ZM18.5,14a.625.625,0,0,1,.622.561l0,.064v5.5a.625.625,0,0,1-1.247.064l0-.064v-5.5A.625.625,0,0,1,18.5,14Zm-3.25,0a.625.625,0,0,1,.622.561l0,.064v5.5a.625.625,0,0,1-1.247.064l0-.064v-5.5A.625.625,0,0,1,15.25,14Zm1.625-5.5a1.625,1.625,0,0,0-1.622,1.533l0,.092H18.5A1.625,1.625,0,0,0,16.875,8.5Z" transform="translate(-9.75 -7.25)"/>
    </g>
  </g>
</svg>
