<svg xmlns="http://www.w3.org/2000/svg" width="18" height="22.909" viewBox="0 0 18 22.909">
    <path data-name="Path 15432" d="M9 13.091A4.091 4.091 0 1 1 13.091 9 4.091 4.091 0 0 1 9 13.091zm0-6.545a2.455 2.455 0 1 0 2.455 2.455A2.455 2.455 0 0 0 9 6.546z"/>
    <path data-name="Path 15433" d="m9 22.909-6.9-8.14q-.144-.183-.284-.369A8.909 8.909 0 0 1 .003 9a9 9 0 0 1 18 0 8.9 8.9 0 0 1-1.812 5.4s-.245.322-.282.366zm-5.881-9.5s.191.252.235.306l5.647 6.66 5.654-6.668c.036-.045.228-.3.228-.3a7.283 7.283 0 0 0 1.481-4.412 7.364 7.364 0 1 0-14.727 0 7.286 7.286 0 0 0 1.484 4.414z"/>
</svg>
