<svg xmlns="http://www.w3.org/2000/svg" width="18" height="26.216" viewBox="0 0 18 26.216">
    <g data-name="Group 6">
        <g data-name="Group 5">
            <path data-name="Path 24" d="M15.757 11.272V6.757a6.757 6.757 0 1 0-13.514 0v4.515a9 9 0 1 0 13.514 0zM3.287 6.757a5.713 5.713 0 0 1 11.425 0v3.505a8.992 8.992 0 0 0-1.228-.85V6.757a4.485 4.485 0 1 0-8.969 0v2.655a8.989 8.989 0 0 0-1.228.85zm9.153 0V8.9a9.009 9.009 0 0 0-6.88 0V6.757a3.44 3.44 0 1 1 6.88 0zM9 25.172a7.957 7.957 0 1 1 5.851-13.345A7.955 7.955 0 0 1 9 25.172z"/>
        </g>
    </g>
    <g data-name="Group 8">
        <g data-name="Group 7">
            <path data-name="Path 25" d="M9 12.062a5.172 5.172 0 1 0 5.172 5.172A5.178 5.178 0 0 0 9 12.062zm0 9.3a4.128 4.128 0 1 1 4.128-4.128A4.133 4.133 0 0 1 9 21.362z"/>
        </g>
    </g>
    <g data-name="Group 10">
        <g data-name="Group 9">
            <path data-name="Path 26" d="m9.748 17.33 1.132-1.132a.523.523 0 1 0-.739-.739l-1.132 1.132-1.132-1.132a.523.523 0 0 0-.739.739L8.27 17.33l-1.132 1.132a.523.523 0 0 0 .739.739l1.132-1.132 1.132 1.132a.523.523 0 1 0 .739-.739z"/>
        </g>
    </g>
</svg>
