<svg xmlns="http://www.w3.org/2000/svg" width="29.44" height="24.275" viewBox="0 0 29.44 24.275">
    <g data-name="Group 18489">
        <g data-name="Group 18488">
            <path data-name="Path 17558" d="M27.512 0H1.928A1.935 1.935 0 0 0 0 1.942v16.316A1.935 1.935 0 0 0 1.928 20.2h8.492l2.825 3.382a1.92 1.92 0 0 0 2.952 0l2.825-3.382h8.491a1.935 1.935 0 0 0 1.928-1.942V1.942A1.935 1.935 0 0 0 27.512 0zm0 18.258h-9.389l-3.4 4.074-3.4-4.074H1.928V1.942h25.584z"/>
            <path data-name="Path 17559" d="M4.845 7.501h12.284a1.1 1.1 0 1 0 0-2.153H4.845a1.1 1.1 0 1 0 0 2.153z"/>
            <path data-name="Path 17560" d="M6.366 12.718c0 .6.355 1.078.793 1.078h15.122c.438 0 .793-.482.793-1.078s-.355-1.077-.793-1.077H7.159c-.438 0-.793.481-.793 1.077z"/>
        </g>
    </g>
</svg>
