<svg xmlns="http://www.w3.org/2000/svg" width="116.496" height="108.308" viewBox="0 0 116.496 108.308">
    <g data-name="Group 18475">
        <ellipse cx="58.248" cy="33.63" rx="58.248" ry="33.63" transform="translate(0 41.048)" style="fill:#f5f5f5"/>
        <path d="m102.157 252.67 28.577-16.5a.691.691 0 0 0 0-1.309l-54.1-31.237a2.507 2.507 0 0 0-2.267 0l-28.577 16.5a.691.691 0 0 0 0 1.309l54.1 31.237a2.507 2.507 0 0 0 2.267 0z" transform="translate(-33.452 -150.109)" style="fill:#e0e0e0"/>
        <path d="m48.6 213.254 2.239-1.293a48.457 48.457 0 0 0 .183-8.512c-.513-5.221-3.886-11.5-7.907-10.026s1.843 6.792 3.15 11.22 2.335 8.611 2.335 8.611z" transform="translate(-30.803 -142.615)" style="fill:#27debf"/>
        <path d="m48.6 213.254 2.239-1.293a48.457 48.457 0 0 0 .183-8.512c-.513-5.221-3.886-11.5-7.907-10.026s1.843 6.792 3.15 11.22 2.335 8.611 2.335 8.611z" transform="translate(-30.803 -142.615)" style="opacity:.15"/>
        <path d="M56.65 217.331h-.005a.135.135 0 0 1-.131-.141c.393-11.6-5.381-17.436-5.438-17.493a.135.135 0 0 1 .189-.194c.06.058 5.917 5.978 5.519 17.695a.132.132 0 0 1-.134.133z" transform="translate(-37.673 -147.237)" style="fill:#fff"/>
        <path d="m41.362 233.693 1.595-.919a17.552 17.552 0 0 0-1.343-7.289c-1.406-3.482-4.891-6.37-6.645-5.763s-1.71 1.851-.856 3.155 6.055 4.411 7.249 10.816z" transform="translate(-24.757 -162.13)" style="fill:#27debf"/>
        <path d="M46.561 236.114a.135.135 0 0 1-.136-.136c.031-7.334-6.855-12.291-6.926-12.34a.135.135 0 1 1 .157-.22c.071.05 7.072 5.09 7.038 12.563a.132.132 0 0 1-.133.133z" transform="translate(-29.115 -164.9)" style="fill:#fff"/>
        <g>
            <path d="m357.351 1.231 2.254 1.3a2.9 2.9 0 0 1-.018-.3v-.649c0-1.163.817-1.634 1.822-1.053a3.513 3.513 0 0 1 1.091 1.045c.165-1.461 1.312-2.006 2.7-1.2a6.028 6.028 0 0 1 2.726 4.726v.977A2.579 2.579 0 0 1 367.7 7.2l1.872 1.081a2.238 2.238 0 0 1 1.011 1.752c0 .644-.453.906-1.011.584l-12.221-7.051a2.238 2.238 0 0 1-1.011-1.752c-.003-.643.45-.905 1.011-.583z" transform="translate(-263.038)" style="fill:#ebebeb"/>
            <path d="m322.316 24.332 1.652.953a2.068 2.068 0 0 1-.013-.22v-.479c0-.851.6-1.2 1.335-.772a2.591 2.591 0 0 1 .8.765c.12-1.071.961-1.472 1.982-.88a4.411 4.411 0 0 1 2 3.461v.717a1.865 1.865 0 0 1-.17.83l1.372.793a1.64 1.64 0 0 1 .741 1.283c0 .474-.333.665-.741.427l-8.957-5.171a1.64 1.64 0 0 1-.741-1.283c-.001-.472.332-.663.74-.424z" transform="translate(-237.372 -17.291)" style="fill:#ebebeb"/>
        </g>
        <g>
            <path d="M134.886 267.239c.406.314.361.762-.131 1.045l-26.972 15.574a2.166 2.166 0 0 1-1.961 0L54.274 254.1c-.5-.288-.539-.741-.115-1.055a2.189 2.189 0 0 0-.867 1.623v1.3a2.162 2.162 0 0 0 .982 1.7l51.545 29.758a2.163 2.163 0 0 0 1.964 0l26.974-15.571a2.167 2.167 0 0 0 .982-1.7v-1.3a2.193 2.193 0 0 0-.853-1.616z" transform="translate(-39.337 -186.785)" style="fill:#455a64"/>
            <path d="m136.387 222.373-51.55-29.763a2.182 2.182 0 0 0-1.961 0L55.9 208.184a.6.6 0 0 0 0 1.131l51.547 29.76a2.182 2.182 0 0 0 1.961 0l26.976-15.575a.6.6 0 0 0 .003-1.127zm-6.994-2.409a.51.51 0 0 1 0 .969L104.867 235.1a1.869 1.869 0 0 1-1.684 0l-40.134-23.177a.513.513 0 0 1 0-.971l24.526-14.16a1.359 1.359 0 0 1 1.411-.157z" transform="translate(-40.966 -142.005)" style="fill:#37474f"/>
            <path d="M54.159 253.04a2.189 2.189 0 0 0-.867 1.623v1.3a2.169 2.169 0 0 0 .982 1.7l51.545 29.758a2.013 2.013 0 0 0 .985.236v-3.566a2.023 2.023 0 0 1-.982-.233L54.275 254.1c-.501-.293-.54-.746-.116-1.06z" transform="translate(-39.337 -186.785)" style="fill:#263238"/>
            <path d="M31.012 59.921a.4.4 0 0 0 0-.759 1.453 1.453 0 0 0-1.314 0 .4.4 0 0 0 0 .759 1.453 1.453 0 0 0 1.314 0z"/>
            <path d="M298.557 331.532a.944.944 0 0 0 0-1.788 3.417 3.417 0 0 0-3.1 0 .944.944 0 0 0 0 1.788 3.417 3.417 0 0 0 3.1 0z" transform="translate(-217.624 -243.131)" style="fill:none;stroke:#e6e6e6;stroke-miterlimit:10"/>
            <path d="m30.362 62.44 5.077-2.933c.3-.175.317-.45.034-.613a1.18 1.18 0 0 0-1.063.018l-5.077 2.933c-.3.175-.317.45-.034.613a1.172 1.172 0 0 0 1.063-.018z"/>
            <path d="M109.295 208.259a1.359 1.359 0 0 0-1.411.157l-24.526 14.16a.513.513 0 0 0 0 .971l40.134 23.172a1.861 1.861 0 0 0 1.684 0l24.524-14.162a.511.511 0 0 0 0-.969z" transform="translate(-61.274 -153.626)" style="fill:#27debf"/>
            <path d="M109.295 208.259a1.359 1.359 0 0 0-1.411.157l-24.526 14.16a.513.513 0 0 0 0 .971l40.134 23.172a1.861 1.861 0 0 0 1.684 0l24.524-14.162a.511.511 0 0 0 0-.969z" transform="translate(-61.274 -153.626)" style="opacity:.85;fill:#fff"/>
            <g>
                <path d="m94.27 267.309-.262-.152a.062.062 0 0 1 0-.118l.029-.016a.233.233 0 0 1 .2 0l.262.152a.062.062 0 0 1 0 .118l-.029.016a.217.217 0 0 1-.2 0z" transform="translate(-69.362 -197.09)" style="fill:#455a64"/>
                <path d="m95.519 265.979-.45-.262a.062.062 0 0 1 0-.118l.029-.016a.233.233 0 0 1 .2 0l.45.262a.062.062 0 0 1 0 .118l-.029.016a.233.233 0 0 1-.2 0z" transform="translate(-70.144 -196.027)" style="fill:#455a64"/>
                <path d="m96.76 264.646-.641-.369a.062.062 0 0 1 0-.118l.029-.016a.233.233 0 0 1 .2 0l.641.369a.062.062 0 0 1 0 .118l-.029.016a.233.233 0 0 1-.2 0z" transform="translate(-70.92 -194.964)" style="fill:#455a64"/>
                <path d="m97.226 262.856-1.108-.639a.062.062 0 0 1 0-.118l.029-.016a.233.233 0 0 1 .2 0l1.108.639a.062.062 0 0 1 0 .118l-.029.016a.217.217 0 0 1-.2 0z" transform="translate(-70.92 -193.443)" style="fill:#455a64"/>
                <g>
                    <path d="M102.942 260.645a.1.1 0 0 1-.052-.013l-.162-.094-.521.3a.078.078 0 0 1-.079.005l-.058-.034a.128.128 0 0 1-.026-.021.162.162 0 0 1-.008-.026l-.026-.657a.081.081 0 0 1 .005-.029q0-.012.031-.024l.073-.042a.151.151 0 0 1 .06-.021.11.11 0 0 1 .055.016l.568.327.115-.065a.155.155 0 0 1 .058-.021.1.1 0 0 1 .052.016l.039.024c.018.01.026.018.024.029s-.013.021-.034.034l-.115.065.162.094c.018.01.026.021.024.029s-.013.021-.037.034l-.089.05a.11.11 0 0 1-.059.024zm-.317-.207-.406-.233.026.453z" transform="translate(-75.301 -191.915)" style="fill:#455a64"/>
                    <path d="M105.453 258.275a.951.951 0 0 1-.529-.128q-.244-.141-.22-.306c.016-.11.115-.22.3-.325a1.547 1.547 0 0 1 .23-.11 1.194 1.194 0 0 1 .217-.06.047.047 0 0 1 .034 0 .026.026 0 0 1 .01.013l.024.068a.014.014 0 0 1-.008.018.078.078 0 0 1-.029.008 1.034 1.034 0 0 0-.322.123c-.126.073-.194.147-.2.223s.047.152.173.223a.7.7 0 0 0 .385.1.806.806 0 0 0 .377-.113c.045-.026.084-.052.12-.079a.41.41 0 0 0 .076-.073l-.264-.152-.217.126a.155.155 0 0 1-.058.021.1.1 0 0 1-.052-.016l-.037-.021c-.018-.01-.026-.021-.024-.029s.013-.021.034-.034l.348-.2a.146.146 0 0 1 .068-.021.116.116 0 0 1 .063.018l.377.217a.08.08 0 0 1 .026.021c.005.005 0 .013 0 .024a.823.823 0 0 1-.33.285 1.234 1.234 0 0 1-.572.179z" transform="translate(-77.288 -189.961)" style="fill:#455a64"/>
                </g>
                <g>
                    <path d="m135.139 240.138.615.356a.189.189 0 0 0 .168 0l.618-.356a.051.051 0 0 0 0-.1l-.618-.356a.189.189 0 0 0-.168 0l-.618.356c-.044.032-.044.073.003.1z" transform="translate(-99.729 -176.912)" style="fill:#455a64"/>
                    <path d="M135.13 239.46a.611.611 0 0 0-.529 0c-.118.068-.118.175 0 .246l.212.123.157-.029-.212-.123a.1.1 0 0 1 0-.186.236.236 0 0 1 .107-.029.22.22 0 0 1 .107.029l.212.123.157-.029z" transform="translate(-99.293 -176.716)" style="fill:#455a64"/>
                </g>
                <g>
                    <path d="M174.244 214.82a.6.6 0 0 0-.3.068l-1.563.9c-.136.079-.136.2 0 .278l.571.33a.6.6 0 0 0 .3.068.842.842 0 0 0 .144-.013.416.416 0 0 0 .152-.055l1.563-.9c.134-.079.136-.2 0-.278l-.571-.33a.589.589 0 0 0-.296-.068zm-.995 1.576a.266.266 0 0 1-.126-.034l-.571-.33a.113.113 0 0 1 0-.212l1.563-.9a.272.272 0 0 1 .081-.029.288.288 0 0 1 .047-.005.266.266 0 0 1 .126.034l.571.33a.113.113 0 0 1 0 .212l-1.563.9a.255.255 0 0 1-.128.038z" transform="translate(-127.171 -158.572)" style="fill:#455a64"/>
                    <path d="m174.487 216.781-.024-.013-.513-.3a.085.085 0 0 1 0-.157l1.409-.812a.212.212 0 0 1 .029-.013l.024.013.513.3a.085.085 0 0 1 0 .157l-1.409.812a.055.055 0 0 1-.029.013z" transform="translate(-128.364 -159.067)" style="fill:#455a64"/>
                    <path d="M180.917 214.87a.391.391 0 0 1 .314.063l.1.06c.118.068.168.152.11.186l-.1.063-.537-.312a.571.571 0 0 0 .113-.06z" transform="translate(-133.468 -158.598)" style="fill:#455a64"/>
                </g>
                <g>
                    <path d="M138.917 265.6a2.515 2.515 0 0 0 1.1-.3c.639-.369.8-.872-.209-1.5a1.252 1.252 0 0 1-.665.9 2.642 2.642 0 0 1-2.655.17c-.759-.44-.518-1.139.351-1.639a3.7 3.7 0 0 1 3.689.013c1.479.854 1.147 1.757.1 2.362a4.151 4.151 0 0 1-1.788.534zm.369-2.082a2.072 2.072 0 0 0-1.914 0c-.416.238-.5.586-.039.854a1.447 1.447 0 0 0 1.487-.071.813.813 0 0 0 .466-.785z" transform="translate(-100.414 -193.938)" style="fill:#455a64"/>
                    <path d="M154.586 258.961a1.145 1.145 0 0 1 1.058-.071c.27.154.212.416-.123.61a1.163 1.163 0 0 1-1.066.076c-.272-.154-.204-.421.131-.615zm2.048 1.184a1.145 1.145 0 0 1 1.058-.071c.27.154.212.416-.123.61a1.171 1.171 0 0 1-1.066.076c-.273-.16-.203-.422.131-.615z" transform="translate(-113.889 -191.03)" style="fill:#455a64"/>
                    <path d="M161.778 251.279c-1.288-.744-1.288-1.516-.233-2.126a3.62 3.62 0 0 1 3.681.136c1.288.744 1.325 1.537.27 2.147a3.692 3.692 0 0 1-3.718-.157zm2.569-1.485c-1.079-.623-1.77-.615-2.265-.33s-.505.686.573 1.307 1.815.634 2.3.351.47-.705-.608-1.328z" transform="translate(-118.682 -183.591)" style="fill:#455a64"/>
                    <path d="M177.418 242.249c-1.288-.744-1.288-1.516-.233-2.126a3.62 3.62 0 0 1 3.681.136c1.288.744 1.322 1.537.27 2.147a3.686 3.686 0 0 1-3.718-.157zm2.569-1.485c-1.079-.623-1.77-.615-2.265-.33s-.505.686.573 1.307 1.815.631 2.3.351.47-.705-.608-1.328z" transform="translate(-130.227 -176.926)" style="fill:#455a64"/>
                </g>
                <g>
                    <path d="m154.1 261.561 20.6-11.893a1.742 1.742 0 0 1 1.576 0l5.266 3.04a.48.48 0 0 1 0 .909l-20.6 11.893a1.742 1.742 0 0 1-1.576 0l-5.268-3.04a.48.48 0 0 1 .002-.909z" transform="translate(-113.512 -184.157)" style="fill:#27debf"/>
                    <path d="m163.047 286.983 3.684 2.129a.76.76 0 0 0 .681 0l5.43-3.137a.207.207 0 0 0 0-.393l-3.684-2.129a.76.76 0 0 0-.681 0l-5.43 3.137a.208.208 0 0 0 0 .393z" transform="translate(-120.253 -209.175)" style="fill:#fafafa"/>
                    <path d="m168.615 285.967 4.37-.173-4.354-.065.175-2.349-.715 2.9-5.182.511 4.231-.2-.1 2.605.325-2.616 1.212-.055z" transform="translate(-120.255 -209.181)" style="fill:#27debf"/>
                    <path d="m192.946 270.488 5.323-3.061a.949.949 0 0 1 .856-.01c.23.134.223.356-.018.495l-5.323 3.061a.949.949 0 0 1-.856.01c-.228-.134-.228-.356.018-.495z" transform="translate(-142.288 -197.325)" style="fill:#fafafa"/>
                    <path d="m199.2 265.151 10.79-6.234a.949.949 0 0 1 .856-.01c.23.134.223.356-.018.495l-10.79 6.234a.949.949 0 0 1-.856.01c-.233-.133-.226-.356.018-.495z" transform="translate(-146.904 -191.044)" style="fill:#fafafa"/>
                    <path d="m205.453 268.761 10.79-6.234a.949.949 0 0 1 .856-.01c.23.134.223.356-.018.495l-10.79 6.234a.949.949 0 0 1-.856.01c-.235-.133-.223-.356.018-.495z" transform="translate(-151.52 -193.708)" style="fill:#fafafa"/>
                </g>
            </g>
        </g>
        <g>
            <path d="m146.01 74.694 34.924-20.164 1.4.806a1.458 1.458 0 0 1 .657 1.139v25.762a1.463 1.463 0 0 1-.657 1.139l-33.609 19.4a1.453 1.453 0 0 1-1.314 0l-.741-.427a1.458 1.458 0 0 1-.657-1.139z" transform="translate(-107.779 -40.251)" style="fill:#27debf"/>
            <path d="m146.01 74.694 34.924-20.164 1.4.806a1.458 1.458 0 0 1 .657 1.139v25.762a1.463 1.463 0 0 1-.657 1.139l-33.609 19.4a1.453 1.453 0 0 1-1.314 0l-.741-.427a1.458 1.458 0 0 1-.657-1.139z" transform="translate(-107.779 -40.251)" style="opacity:.05"/>
            <path d="m180.747 28.369.144-.079-.542-.314a1.029 1.029 0 0 0-.144-.068l-15.37-5.695a1.061 1.061 0 0 0-1.181.374l-17.192 25.108a2.965 2.965 0 0 0-.443 1.432V50.8l.534.309 34.392-20.473v-1.673a1.159 1.159 0 0 0-.198-.594z" transform="translate(-107.786 -16.355)" style="fill:#27debf"/>
            <path d="M164.706 23.389a.87.87 0 0 0-.178.189l-17.194 25.107a2.672 2.672 0 0 0-.319.717l-.534-.309a3.43 3.43 0 0 1 .139-.38c0-.005 0-.008.005-.01l.073-.152.013-.024a1.372 1.372 0 0 1 .092-.152l17.192-25.107a.835.835 0 0 1 .086-.1c.029-.029.06-.058.092-.084z" transform="translate(-108.126 -17.036)" style="opacity:.1"/>
            <path d="M231.1 28.284a.838.838 0 0 0-.147-.071l-15.372-5.7a1.054 1.054 0 0 0-1 .189l-.534-.309a1.066 1.066 0 0 1 1-.189l15.37 5.695a.814.814 0 0 1 .144.071z" transform="translate(-158.004 -16.351)" style="opacity:.35;fill:#fff"/>
            <path d="M147.35 119.842a1.669 1.669 0 0 1 .092-.152 1.669 1.669 0 0 0-.092.152z" transform="translate(-108.769 -88.35)" style="fill:#27debf"/>
            <path d="M213.7 23.164c.029-.029.06-.058.092-.084a.941.941 0 0 0-.092.084z" transform="translate(-157.746 -17.036)" style="fill:#27debf"/>
            <path d="M146.47 121.37a3.246 3.246 0 0 1 .139-.38 3.081 3.081 0 0 0-.139.38z" transform="translate(-108.119 -89.31)" style="fill:#27debf"/>
            <path d="M147.02 120.519c.024-.052.047-.1.073-.149-.023.047-.049.097-.073.149z" transform="translate(-108.525 -88.852)" style="fill:#27debf"/>
            <path d="M147.01 120.95s0-.008.005-.01a.02.02 0 0 0-.005.01z" transform="translate(-108.518 -89.273)" style="opacity:.2"/>
            <path d="M146.47 122.44z" transform="translate(-108.119 -90.38)" style="opacity:.2"/>
            <path d="M214.05 23.08z" transform="translate(-158.004 -17.036)" style="opacity:.2"/>
            <path d="m147.3 120.286.013-.026a.082.082 0 0 1-.013.026z" transform="translate(-108.732 -88.771)" style="opacity:.2"/>
            <path d="M213.37 23.5a1.078 1.078 0 0 1 .086-.1.8.8 0 0 0-.086.1z" transform="translate(-157.502 -17.272)" style="opacity:.2"/>
            <path d="m165.685 23.767-17.193 25.107a2.965 2.965 0 0 0-.443 1.432v1.668l34.925-20.164v-1.665a1.208 1.208 0 0 0-.736-1.058l-15.37-5.695a1.059 1.059 0 0 0-1.183.375z" transform="translate(-109.285 -17.225)" style="fill:#27debf"/>
            <g>
                <path d="m158.611 120.613-1.118-.647-.01-.008a.683.683 0 0 1-.27-.613V84.438a2.007 2.007 0 0 1 .314-1l1.139.657a1.982 1.982 0 0 0-.314 1V120a.678.678 0 0 0 .259.613z" transform="translate(-116.047 -61.592)" style="fill:#e0e0e0"/>
                <path d="m162.521 37.375 28.05-16.194c.532-.306.961-.058.961.555v34.905a2.131 2.131 0 0 1-.961 1.665L162.521 74.5c-.532.306-.961.058-.961-.555V39.04a2.124 2.124 0 0 1 .961-1.665z" transform="translate(-119.258 -15.537)" style="fill:#f0f0f0"/>
                <path d="m187.783 18.606 1.1.636a.681.681 0 0 0-.644.092l-28.05 16.192a1.863 1.863 0 0 0-.649.665l-1.139-.657a1.931 1.931 0 0 1 .647-.668L187.1 18.671a.667.667 0 0 1 .683-.063z" transform="translate(-116.925 -13.686)" style="fill:#fafafa"/>
                <path d="m171.981 52.178 23.33-13.469c.314-.181.566-.052.566.288a1.218 1.218 0 0 1-.568.943l-23.33 13.469c-.314.181-.568.052-.568-.288a1.224 1.224 0 0 1 .57-.943z" transform="translate(-126.529 -28.513)" style="fill:#e0e0e0"/>
                <path d="m171.981 61.528 23.33-13.469c.314-.181.566-.052.566.288a1.218 1.218 0 0 1-.568.943l-23.33 13.469c-.314.181-.568.052-.568-.288a1.224 1.224 0 0 1 .57-.943z" transform="translate(-126.529 -35.415)" style="fill:#e0e0e0"/>
                <path d="m171.981 70.878 23.33-13.469c.314-.181.566-.052.566.288a1.218 1.218 0 0 1-.568.943l-23.33 13.469c-.314.181-.568.052-.568-.288a1.224 1.224 0 0 1 .57-.943z" transform="translate(-126.529 -42.317)" style="fill:#e0e0e0"/>
                <path d="m171.981 80.228 23.33-13.469c.314-.181.566-.052.566.288a1.218 1.218 0 0 1-.568.943l-23.33 13.469c-.314.181-.568.052-.568-.288a1.224 1.224 0 0 1 .57-.943z" transform="translate(-126.529 -49.219)" style="fill:#e0e0e0"/>
                <path d="m171.981 89.578 23.33-13.469c.314-.181.566-.052.566.288a1.218 1.218 0 0 1-.568.943l-23.33 13.469c-.314.181-.568.052-.568-.288a1.224 1.224 0 0 1 .57-.943z" transform="translate(-126.529 -56.12)" style="fill:#e0e0e0"/>
                <path d="m171.981 98.918 23.33-13.469c.314-.181.566-.052.566.288a1.218 1.218 0 0 1-.568.943l-23.33 13.469c-.314.181-.568.052-.568-.288a1.228 1.228 0 0 1 .57-.943z" transform="translate(-126.529 -63.015)" style="fill:#e0e0e0"/>
                <path d="M171.981 108.268 195.31 94.8c.314-.181.566-.052.566.288a1.218 1.218 0 0 1-.568.943l-23.33 13.469c-.314.181-.568.052-.568-.288a1.224 1.224 0 0 1 .571-.944z" transform="translate(-126.529 -69.917)" style="fill:#e0e0e0"/>
                <path d="m171.981 117.618 23.33-13.469c.314-.181.566-.052.566.288a1.218 1.218 0 0 1-.568.943l-23.33 13.469c-.314.181-.568.052-.568-.288a1.217 1.217 0 0 1 .57-.943z" transform="translate(-126.529 -76.819)" style="fill:#e0e0e0"/>
            </g>
            <g>
                <path d="M187.1 142.085a.316.316 0 0 1-.037.052l-14.553-6.454a2.5 2.5 0 0 0-3.145.969l-15.558 24.966-.576.333h-.005a.469.469 0 0 1-.445.05l16-25.676a2.514 2.514 0 0 1 3.147-.971z" transform="translate(-112.777 -99.756)" style="fill:#27debf"/>
                <path d="m167.932 148.625.037-.031-14.163 22.727-.576.333h-.005a.476.476 0 0 1-.445.05l14.592-23.416z" transform="translate(-112.777 -109.462)" style="opacity:.4;fill:#fff"/>
                <path d="M232.233 142.071a.316.316 0 0 1-.037.052l-14.555-6.457a2.506 2.506 0 0 0-3.145.969l-.576-.335a2.512 2.512 0 0 1 3.142-.964z" transform="translate(-157.908 -99.742)" style="opacity:.4;fill:#fff"/>
                <path d="M189.737 57.182c-.031-.189-.131-.241-.259-.152a.756.756 0 0 0-.168.173l-.073.1L174.873 77.3l-2.144 2.988a1.223 1.223 0 0 1-1.181.443l-1.851-.44-14.131-3.362a.72.72 0 0 0-.288-.01.512.512 0 0 0-.107.034l.39-.225 13.623 3.239 1.851.44a1.216 1.216 0 0 0 1.181-.442l2.144-2.985 14.432-20.1a.577.577 0 0 1 .162-.149l-1.249-.72.524-.3.864.5a1.5 1.5 0 0 1 .644.971z" transform="translate(-114.541 -41.122)" style="fill:#27debf"/>
                <path d="m215.826 137.331-2.144 2.988a1.223 1.223 0 0 1-1.181.443l-1.851-.44.037-.031.089-.141 1.212.288a1.216 1.216 0 0 0 1.181-.443l2.123-2.954z" transform="translate(-155.494 -101.157)" style="opacity:.4;fill:#fff"/>
                <path d="m243.134 56.2-.864-.5-.524.3 1.249.72a.588.588 0 0 0-.162.149l-14.433 20.1-.02.031.534.291L243.276 57.3l.073-.1a.756.756 0 0 1 .168-.173c.128-.089.228-.037.259.152a1.5 1.5 0 0 0-.642-.979z" transform="translate(-168.582 -41.115)" style="opacity:.1"/>
                <path d="M149.082 133.31 146 131.53v26.521a1.463 1.463 0 0 0 .657 1.139l.741.427a1.453 1.453 0 0 0 1.314 0l.369-.215z" transform="translate(-107.772 -97.09)" style="fill:#27debf"/>
                <path d="M149.082 133.31 146 131.53v26.521a1.463 1.463 0 0 0 .657 1.139l.741.427a1.453 1.453 0 0 0 1.314 0l.369-.215z" transform="translate(-107.772 -97.09)" style="opacity:.15"/>
                <path d="M188.268 61.8v25.482a1.321 1.321 0 0 1-.2.665 1.362 1.362 0 0 1-.385.429l-.024.016a.425.425 0 0 1-.044.029L154 107.823h-.005a.624.624 0 0 1-.128.06.835.835 0 0 1-.008-.118V82a.571.571 0 0 1 .738-.581l14.131 3.362 1.851.44a1.223 1.223 0 0 0 1.181-.443l2.144-2.988z" transform="translate(-113.574 -45.618)" style="fill:#455a64"/>
                <path d="M188.784 60.942V86.7a1.339 1.339 0 0 1-.2.665 1.435 1.435 0 0 1-.385.432l-.026.013a.4.4 0 0 1-.042.029l-33.609 19.4h-.005a.468.468 0 0 1-.448.052.4.4 0 0 1-.2-.314.835.835 0 0 1-.008-.118V81.1a.571.571 0 0 1 .738-.581l14.131 3.362 1.851.44a1.223 1.223 0 0 0 1.181-.442l2.144-2.988L188.268 60.9l.073-.1c.244-.34.443-.277.443.142z" transform="translate(-113.574 -44.718)" style="fill:#27debf"/>
                <path d="M244.648 145.1a.237.237 0 0 0 .042-.029l.026-.016a1.456 1.456 0 0 0 .385-.429 1.365 1.365 0 0 0 .2-.655l-14.871-5.821 9.963 9.408z" transform="translate(-170.095 -101.977)" style="fill:#27debf"/>
                <path d="M244.648 145.1a.237.237 0 0 0 .042-.029l.026-.016a1.456 1.456 0 0 0 .385-.429 1.365 1.365 0 0 0 .2-.655l-14.871-5.821 9.963 9.408z" transform="translate(-170.095 -101.977)" style="opacity:.2"/>
                <path d="M153.853 172.561a.454.454 0 0 0 .2.432.474.474 0 0 0 .448-.05h.005l11.57-6.679 2.642-16.682-14.868 22.552v.427z" transform="translate(-113.567 -110.414)" style="fill:#27debf"/>
                <path d="m170.157 139.953-16.092 25.689a.454.454 0 0 1-.2-.432v-.427l14.2-22.717.11-.175 1.411-2.262s0-.005.005-.008z" transform="translate(-113.574 -103.062)" style="opacity:.15"/>
                <path d="M189.155 143.288a1.394 1.394 0 0 1-.385.429l-.026.016-33.651 19.431h-.005a.46.46 0 0 1-.448.05l16.1-25.694a2.526 2.526 0 0 1 3.163-.971z" transform="translate(-114.15 -100.637)" style="fill:#27debf"/>
                <path d="M189.155 162.115a1.362 1.362 0 0 1-.385.429l-.024.016-33.654 19.431h-.005a.473.473 0 0 1-.448.05l.448-.712 33.072-19.1.026-.016a1.339 1.339 0 0 0 .348-.377z" transform="translate(-114.15 -119.464)" style="fill:#27debf"/>
                <path d="m146.133 122.43.534.309a2.612 2.612 0 0 0-.123.717v1.665l-.534-.309v-1.668a2.61 2.61 0 0 1 .123-.714z" transform="translate(-107.779 -90.373)" style="opacity:.15"/>
                <path d="m150.789 132.823-.492-.115-.39.225-.539-.312-1.327-.765.516-.306z" transform="translate(-109.278 -97.105)" style="fill:#27debf"/>
                <path d="m150.8 132.823-2.231-1.273-.516.306 1.327.765.539.312h.005a.583.583 0 0 1 .1-.031.72.72 0 0 1 .288.01l1.087.259 12.374 2.943.11-.175z" transform="translate(-109.285 -97.105)" style="opacity:.1"/>
            </g>
            <g>
                <path d="m275.048 135.15-2.485-1.44-.024-.013c-1.084-.613-2.574-.521-4.221.429a13.272 13.272 0 0 0-6 10.4c0 1.911.67 3.255 1.754 3.883h.005l2.265 1.3.531-.888a6.094 6.094 0 0 0 1.723-.67 13.272 13.272 0 0 0 6-10.4 6.426 6.426 0 0 0-.189-1.534z" transform="translate(-193.628 -98.404)" style="fill:#f28f8f"/>
                <path d="M262.538 168.46a9.677 9.677 0 0 0-.228 2.016c0 1.911.67 3.255 1.754 3.883h.005l2.265 1.3.531-.888a6.1 6.1 0 0 0 1.723-.67 9.748 9.748 0 0 0 1.636-1.207z" transform="translate(-193.628 -124.351)" style="opacity:.15"/>
                <path d="M277.344 139.335a13.272 13.272 0 0 0-6 10.4c0 3.828 2.689 5.381 6 3.467a13.272 13.272 0 0 0 6-10.4c.004-3.831-2.683-5.384-6-3.467z" transform="translate(-200.294 -102.246)" style="fill:#ffa8a7"/>
                <path d="M287.792 152.232v-1.472c0-1.678-1.021-2.451-2.278-1.723a5.456 5.456 0 0 0-2.278 4.354v1.314a5.217 5.217 0 0 1-.767 2.569v.005a1.423 1.423 0 0 0-.186.673c0 .422.257.618.573.435l5.323-3.074a1.373 1.373 0 0 0 .573-1.1.546.546 0 0 0-.168-.445l-.008-.005a1.552 1.552 0 0 1-.784-1.531z" transform="translate(-208.369 -109.811)" style="fill:#fff"/>
                <path d="M292.639 178.97a2.615 2.615 0 0 1-1.094 2.089c-.6.348-1.094-.021-1.094-.827z" transform="translate(-214.4 -132.109)" style="fill:#fff"/>
            </g>
        </g>
    </g>
</svg>
