<svg xmlns="http://www.w3.org/2000/svg" width="18" height="17.84" viewBox="0 0 18 17.84">
    <path data-name="Path 5403" d="M5.803 17.839a5.756 5.756 0 0 0 5.778-5.734 5.612 5.612 0 0 0-.251-1.663L18 3.822V0h-3.85L7.478 6.62a5.815 5.815 0 0 0-4.937.736 5.726 5.726 0 0 0-2.516 4.279 5.557 5.557 0 0 0 1.059 3.823 5.792 5.792 0 0 0 4.719 2.381zm0-10.194a4.525 4.525 0 0 1 1.284.191l.738.223.546-.541 2.042-2.026.905.88.905-.9-.886-.879 1.021-1.013.886.879.905-.9-.886-.879 1.419-1.408h2.035v2.02l-6.291 6.263-.546.541.186.605a4.489 4.489 0 0 1-6.536 5.273 4.455 4.455 0 0 1-2.22-3.718 4.238 4.238 0 0 1 .7-2.549A4.5 4.5 0 0 1 5.803 7.65z"/>
    <path data-name="Path 5404" d="M3.981 12.842a1.077 1.077 0 1 1 1.077 1.077 1.077 1.077 0 0 1-1.077-1.077z"/>
</svg>
