<svg xmlns="http://www.w3.org/2000/svg" width="18" height="17.993" viewBox="0 0 18 17.993">
    <path d="M15.924 17.993h-.117C2.207 17.211.277 5.737.007 2.235A2.076 2.076 0 0 1 1.917 0H5.73a1.384 1.384 0 0 1 1.288.872l1.051 2.589a1.384 1.384 0 0 1-.3 1.495L6.291 6.443a6.484 6.484 0 0 0 5.245 5.26l1.5-1.488a1.384 1.384 0 0 1 1.5-.284l2.609 1.045a1.384 1.384 0 0 1 .852 1.287v3.654a2.076 2.076 0 0 1-2.076 2.076zM2.083 1.384a.692.692 0 0 0-.692.692v.055c.319 4.1 2.36 13.786 14.492 14.478a.692.692 0 0 0 .734-.65v-3.7l-2.609-1.045-1.986 1.972-.332-.042c-6.021-.754-6.837-6.775-6.837-6.837l-.042-.332 1.965-1.986-1.04-2.605z"/>
</svg>
