<svg xmlns="http://www.w3.org/2000/svg" width="18" height="11.25" viewBox="0 0 18 11.25">
  <g id="dollar-bill-line" transform="translate(-2 -8)">
    <path id="Path_17562" data-name="Path 17562" d="M18.875,8H3.125A1.125,1.125,0,0,0,2,9.125v9A1.125,1.125,0,0,0,3.125,19.25h15.75A1.125,1.125,0,0,0,20,18.125v-9A1.125,1.125,0,0,0,18.875,8Zm0,3.375a2.391,2.391,0,0,1-2.194-2.25h2.194Zm0,.911V15a3.3,3.3,0,0,0-3.1,3.122H6.213A3.3,3.3,0,0,0,3.125,15V12.275a3.3,3.3,0,0,0,3.1-3.15h9.562a3.3,3.3,0,0,0,3.088,3.15ZM5.319,9.125a2.391,2.391,0,0,1-2.194,2.25V9.125ZM3.125,15.909a2.391,2.391,0,0,1,2.194,2.216H3.125Zm13.556,2.216a2.391,2.391,0,0,1,2.194-2.216v2.216Z"/>
    <path id="Path_17563" data-name="Path 17563" d="M15.244,10.85A3.812,3.812,0,0,0,11.7,14.872a3.812,3.812,0,0,0,3.544,4.022,3.812,3.812,0,0,0,3.544-4.022A3.812,3.812,0,0,0,15.244,10.85Zm0,7.138A2.917,2.917,0,0,1,12.6,14.866a2.917,2.917,0,0,1,2.644-3.122,2.917,2.917,0,0,1,2.644,3.122,2.922,2.922,0,0,1-2.644,3.128Z" transform="translate(-4.244 -1.247)"/>
  </g>
</svg>
