<svg xmlns="http://www.w3.org/2000/svg" width="294.25" height="85.779" viewBox="0 0 294.25 85.779">
    <g data-name="Group 18482" transform="translate(-168.839 -239.778)">
        <path data-name="Path 17552" d="M293.484 270.876h-10.42v29.479h-6.1v-29.479h-10.469v-6.1h26.989z"/>
        <path data-name="Path 17553" d="M329.469 300.354h-6.71l-2.743-6.1-2.746-6.1-7.217-15.959-7.218 15.959h9.25l2.745 6.1h-14.74l-2.744 6.1h-6.705l16.061-35.578h6.709z"/>
        <path data-name="Path 17554" d="M356.151 290.188a11.887 11.887 0 0 1-.813 4.5 9.421 9.421 0 0 1-2.312 3.4 10.348 10.348 0 0 1-3.635 2.16 14.116 14.116 0 0 1-4.778.763 19.79 19.79 0 0 1-7.522-1.347 21.506 21.506 0 0 1-5.438-3.075l4.218-4.218a12.062 12.062 0 0 0 3.761 2.338 10.178 10.178 0 0 0 2.389.661 14.074 14.074 0 0 0 1.83.153 8.3 8.3 0 0 0 2.414-.33 6.836 6.836 0 0 0 1.907-.89 3.969 3.969 0 0 0 1.728-3.354 3.333 3.333 0 0 0-.915-2.288 5.322 5.322 0 0 0-1.83-1.321 9.706 9.706 0 0 0-1.931-.813q-1.018-.305-1.83-.559a1.945 1.945 0 0 0-.457-.127.8.8 0 0 1-.356-.127.769.769 0 0 1-.305-.1q-1.068-.306-3.075-1.068a19.944 19.944 0 0 1-3.99-2.083q-4.626-3.1-4.626-7.624a11.1 11.1 0 0 1 1.043-5.058 9.675 9.675 0 0 1 2.719-3.354 10.591 10.591 0 0 1 3.736-1.855 15.363 15.363 0 0 1 4.041-.56 18.942 18.942 0 0 1 6.15.864 22.933 22.933 0 0 1 3.964 1.728 11.388 11.388 0 0 1 1.3.89q.534.432.94.788l-4.32 4.371a10.926 10.926 0 0 0-2.8-2.084 10.283 10.283 0 0 0-4.473-1.016 8.337 8.337 0 0 0-2.033.255 7.818 7.818 0 0 0-1.779.661 4.108 4.108 0 0 0-2.236 3.608 3.273 3.273 0 0 0 .914 2.338 6.135 6.135 0 0 0 1.83 1.372 10.56 10.56 0 0 0 2.033.813q1.067.305 1.982.559l.611.152q.253.1.965.305a15.424 15.424 0 0 1 1.677.61q.965.407 2.109.966a18.35 18.35 0 0 1 2.262 1.321q4.93 3.253 4.931 7.675z"/>
        <path data-name="Path 17555" d="m380.547 300.456-13.519-13.52v13.418h-6.1v-35.527h6.1v13.469l13.418-13.422h8.641l-17.738 17.738 17.84 17.84z"/>
        <path data-name="Path 17556" d="M410.942 264.016a18.054 18.054 0 0 1 7.192 1.449 18.478 18.478 0 0 1 9.861 9.86 18.581 18.581 0 0 1 0 14.383 18.478 18.478 0 0 1-9.861 9.86 18.573 18.573 0 0 1-14.383 0 18.481 18.481 0 0 1-9.86-9.86 18.574 18.574 0 0 1 0-14.383 18.48 18.48 0 0 1 9.86-9.86 18.052 18.052 0 0 1 7.191-1.449zm0 6.1a12.079 12.079 0 0 0-4.727.94 12.841 12.841 0 0 0-6.735 6.734 12.086 12.086 0 0 0-.94 4.727 12.273 12.273 0 0 0 .94 4.753 12.4 12.4 0 0 0 2.72 4.04 12.11 12.11 0 0 0 4.015 2.694 12.37 12.37 0 0 0 4.727.915 12.569 12.569 0 0 0 4.753-.915 12.381 12.381 0 0 0 6.734-6.734 12.568 12.568 0 0 0 .914-4.753 12.377 12.377 0 0 0-.914-4.727 12.16 12.16 0 0 0-2.694-4.015 12.435 12.435 0 0 0-4.041-2.72 12.272 12.272 0 0 0-4.752-.939z"/>
        <path data-name="Path 17557" d="M463.085 264.776v21.346a14.577 14.577 0 0 1-1.168 5.82 14.988 14.988 0 0 1-7.955 7.955 15.078 15.078 0 0 1-11.639 0 14.988 14.988 0 0 1-7.955-7.955 14.566 14.566 0 0 1-1.168-5.82v-21.346h6.1v21.346a8.811 8.811 0 0 0 8.843 8.844 8.52 8.52 0 0 0 6.252-2.592 8.71 8.71 0 0 0 2.592-6.252v-21.346z"/>
        <rect data-name="Rectangle 7154" width="85.536" height="85.779" rx="14" transform="translate(168.839 239.778)" style="fill:#010101"/>
        <path data-name="Path 17558" d="M272.044 328.524a26.841 26.841 0 0 1-7.926 11.793l-6.036-5.893a19.252 19.252 0 0 0 5.9-8.334 4.211 4.211 0 0 1 8.062 2.435z" transform="translate(-31.443 -29.366)" style="fill:#fff"/>
        <path data-name="Path 17559" d="M227.32 289.168a4.157 4.157 0 0 1-4.152 4.158h-25.582v1.237c0 7.552 2.655 13.413 7.487 17.118l-6.12 5.861a24.8 24.8 0 0 1-1.943-1.839c-5.13-5.382-7.843-12.694-7.843-21.14V263.32a4.21 4.21 0 0 1 8.42 0v21.69h25.583a4.157 4.157 0 0 1 4.15 4.158z" transform="translate(-7.162 -6.811)" style="fill:#fff"/>
        <g data-name="Group 18481">
            <g data-name="Group 18478" transform="translate(204.429 296.736)">
                <rect data-name="Rectangle 7155" width="4.097" height="4.097" rx="2.048" style="fill:#ff9903"/>
                <rect data-name="Rectangle 7156" width="4.097" height="4.097" rx="2.048" transform="translate(0 5.981)" style="fill:#ff9903"/>
                <rect data-name="Rectangle 7157" width="4.097" height="4.097" rx="2.048" transform="translate(0 11.962)" style="fill:#ff9903"/>
            </g>
            <g data-name="Group 18479" transform="translate(210.328 296.736)">
                <rect data-name="Rectangle 7158" width="4.097" height="4.097" rx="2.048" style="fill:#ff9903"/>
                <rect data-name="Rectangle 7159" width="4.097" height="4.097" rx="2.048" transform="translate(0 5.981)" style="fill:#ff9903"/>
                <rect data-name="Rectangle 7160" width="4.097" height="4.097" rx="2.048" transform="translate(0 11.962)" style="fill:#ff9903"/>
            </g>
            <g data-name="Group 18480" transform="translate(216.227 296.736)">
                <rect data-name="Rectangle 7161" width="4.097" height="4.097" rx="2.048" style="fill:#ff9903"/>
                <rect data-name="Rectangle 7162" width="4.097" height="4.097" rx="2.048" transform="translate(0 5.981)" style="fill:#ff9903"/>
                <rect data-name="Rectangle 7163" width="4.097" height="4.097" rx="2.048" transform="translate(0 11.962)" style="fill:#ff9903"/>
            </g>
        </g>
    </g>
</svg>
