<svg xmlns="http://www.w3.org/2000/svg" width="18" height="20.64" viewBox="0 0 18 20.64">
    <path data-name="Path 5401" d="M23.253 5.48A3.522 3.522 0 1 1 19.73 9a3.522 3.522 0 0 1 3.523-3.52m0-1.409A4.931 4.931 0 1 0 28.184 9a4.931 4.931 0 0 0-4.931-4.929z" transform="translate(-14.252 -3.921)" style="stroke:#000;stroke-width:.3px"/>
    <path data-name="Path 5402" d="M18 20.641h-1.8v-2.79a4.5 4.5 0 0 0-4.5-4.5H6.3a4.5 4.5 0 0 0-4.5 4.5v2.79H0v-2.79a6.3 6.3 0 0 1 6.3-6.3h5.4a6.3 6.3 0 0 1 6.3 6.3z"/>
</svg>
