<svg xmlns="http://www.w3.org/2000/svg" width="18" height="18" viewBox="0 0 18 18">
    <path data-name="Path 15466" d="M1.286 11.571v1.286h2.948L0 17.09l.909.909 4.234-4.234v2.948h1.286v-5.142z"/>
    <path data-name="Path 15467" d="M16.714 0h-3.857v9h1.286V5.786h2.571A1.286 1.286 0 0 0 18 4.5V1.286A1.286 1.286 0 0 0 16.714 0zm0 4.5h-2.571V1.286h2.571z"/>
    <path data-name="Path 15468" d="M6.429 1.286h1.929v6.428H6.429V9h5.143V7.714H9.643V1.286h1.929V0H6.429z"/>
    <path data-name="Path 15469" d="M0 1.286h3.857L0 7.714V9h5.143V7.714H1.286l3.857-6.428V0H0z"/>
</svg>
